<svg xmlns="http://www.w3.org/2000/svg" viewBox="0 0 1600 300" role="img" aria-label="ランニング仲間をみつけよう" preserveAspectRatio="xMidYMid slice">
  <defs>
    <linearGradient id="sky" x1="0" y1="0" x2="0" y2="1">
      <stop offset="0" stop-color="#f1f9f3"/>
      <stop offset="1" stop-color="#dcefe2"/>
    </linearGradient>
    <linearGradient id="hill1" x1="0" y1="0" x2="0" y2="1">
      <stop offset="0" stop-color="#bfe6c9"/>
      <stop offset="1" stop-color="#a7dbb4"/>
    </linearGradient>
    <linearGradient id="hill2" x1="0" y1="0" x2="0" y2="1">
      <stop offset="0" stop-color="#7fc593"/>
      <stop offset="1" stop-color="#5fb277"/>
    </linearGradient>
    <linearGradient id="hill3" x1="0" y1="0" x2="0" y2="1">
      <stop offset="0" stop-color="#2f8a4d"/>
      <stop offset="1" stop-color="#1b6e3b"/>
    </linearGradient>

    <!-- runner mark (echoes the ランとも logo) -->
    <symbol id="runner" viewBox="0 0 22 22">
      <circle cx="13.5" cy="3.5" r="2"/>
      <path d="M9.89 19.38l1-4.4 2.1 2v6h2v-7.5l-2.1-2 .6-3c1.3 1.5 3.3 2.5 5.5 2.5v-2c-1.9 0-3.5-1-4.3-2.4l-1-1.6c-.4-.6-1-1-1.7-1-.3 0-.5.1-.8.1l-5.2 2.2v4.7h2v-3.4l1.8-.7-1.6 8.1-4.9-1-.4 2 7 1.4z"/>
    </symbol>
  </defs>

  <!-- sky -->
  <rect width="1600" height="300" fill="url(#sky)"/>

  <!-- morning sun -->
  <circle cx="1310" cy="78" r="52" fill="#ffffff" opacity="0.85"/>
  <circle cx="1310" cy="78" r="52" fill="none" stroke="#1b6e3b" stroke-width="2" opacity="0.35"/>

  <!-- rolling hills -->
  <path d="M0 196 Q400 168 800 190 T1600 182 V300 H0 Z" fill="url(#hill1)"/>
  <path d="M0 226 Q500 192 1000 218 T1600 214 V300 H0 Z" fill="url(#hill2)"/>
  <path d="M0 262 Q420 240 900 256 T1600 250 V300 H0 Z" fill="url(#hill3)"/>

  <!-- running path -->
  <path d="M-40 300 C 260 250 520 276 760 244 C 1000 212 1180 244 1660 196"
        fill="none" stroke="#ffffff" stroke-width="26" stroke-linecap="round" opacity="0.92"/>
  <path d="M-40 300 C 260 250 520 276 760 244 C 1000 212 1180 244 1660 196"
        fill="none" stroke="#1b6e3b" stroke-width="2" stroke-dasharray="2 18" stroke-linecap="round" opacity="0.45"/>

  <!-- multiple runners, different colours, staggered for depth -->
  <use href="#runner" x="0" y="0" width="320" height="320" transform="translate(470,-18)" fill="#1b6e3b"/>
  <use href="#runner" x="0" y="0" width="296" height="296" transform="translate(625,2)" fill="#ef7d00"/>
  <use href="#runner" x="0" y="0" width="344" height="344" transform="translate(770,-42)" fill="#2b7bbd"/>
  <use href="#runner" x="0" y="0" width="280" height="280" transform="translate(940,18)" fill="#d6336c"/>
  <use href="#runner" x="0" y="0" width="312" height="312" transform="translate(1080,-10)" fill="#7a3ea8"/>
</svg>
